<svg id="svg-sprite" style="position:absolute; left: -20000px; top: -20000px;" plainSprite xmlns="http://www.w3.org/2000/svg" xmlns:xlink="http://www.w3.org/1999/xlink"><defs><style>
    .sprite-symbol-usage {display: none;}
    .sprite-symbol-usage:target {display: inline;}
  </style><symbol viewBox="0 0 451.847 451.847" id="rs-arrow-down"><path d="M225.923,354.706c-8.098,0-16.195-3.092-22.369-9.263L9.27,151.157c-12.359-12.359-12.359-32.397,0-44.751 c12.354-12.354,32.388-12.354,44.748,0l171.905,171.915l171.906-171.909c12.359-12.354,32.391-12.354,44.744,0 c12.365,12.354,12.365,32.392,0,44.751L248.292,345.449C242.115,351.621,234.018,354.706,225.923,354.706z" /></symbol><symbol viewBox="0 0 512 512" id="rs-github"><path d="M255.968,5.329C114.624,5.329,0,120.401,0,262.353c0,113.536,73.344,209.856,175.104,243.872 c12.8,2.368,17.472-5.568,17.472-12.384c0-6.112-0.224-22.272-0.352-43.712c-71.2,15.52-86.24-34.464-86.24-34.464 c-11.616-29.696-28.416-37.6-28.416-37.6c-23.264-15.936,1.728-15.616,1.728-15.616c25.696,1.824,39.2,26.496,39.2,26.496 c22.848,39.264,59.936,27.936,74.528,21.344c2.304-16.608,8.928-27.936,16.256-34.368 c-56.832-6.496-116.608-28.544-116.608-127.008c0-28.064,9.984-51.008,26.368-68.992c-2.656-6.496-11.424-32.64,2.496-68 c0,0,21.504-6.912,70.4,26.336c20.416-5.696,42.304-8.544,64.096-8.64c21.728,0.128,43.648,2.944,64.096,8.672 c48.864-33.248,70.336-26.336,70.336-26.336c13.952,35.392,5.184,61.504,2.56,68c16.416,17.984,26.304,40.928,26.304,68.992 c0,98.72-59.84,120.448-116.864,126.816c9.184,7.936,17.376,23.616,17.376,47.584c0,34.368-0.32,62.08-0.32,70.496 c0,6.88,4.608,14.88,17.6,12.352C438.72,472.145,512,375.857,512,262.353C512,120.401,397.376,5.329,255.968,5.329z" /></symbol><symbol viewBox="0 0 429.989 429.989" id="rs-logo"><path d="M420.989,0.001H215.122C215.079,0,215.037,0,214.994,0H77.665c-0.043,0-0.085,0-0.128,0.001H9	c-4.971,0-9,4.029-9,9v411.987c0,4.971,4.029,9,9,9h137.329h0.002h274.659c4.971,0,9-4.029,9-9V9.001	C429.989,4.031,425.96,0.001,420.989,0.001z M343.323,155.331v59.664v0.001v59.664h-50.664v-59.665c0-4.971-4.029-9-9-9h-68.665	c-0.045,0-0.09,0-0.135,0.001h-59.53v-50.665H343.323z M86.665,18h119.329v119.33h-59.665H86.665V18z M18,18.001h50.665V146.33	c0,0.063,0,0.128,0.002,0.191v59.475H18V18.001z M137.331,411.989H18V292.66h50.667v59.665c0,4.971,4.029,9,9,9h59.664V411.989z M146.329,274.66c-4.971,0-9,4.029-9,9v59.665H86.667V283.66c0-4.971-4.029-9-9-9H18v-50.664h59.667c4.971,0,9-4.029,9-9v-59.665	h50.662v59.665c0,4.971,4.029,9,9,9h59.665v50.664H146.329z M205.994,352.325v59.664h-50.663v-59.664c0-0.063,0-0.124-0.002-0.187	V292.66h59.665c4.971,0,9-4.029,9-9v-59.665h50.665v119.33h-59.665C210.023,343.325,205.994,347.354,205.994,352.325z M411.989,411.989H223.994v-50.664h187.996V411.989z M411.989,343.325H292.659V292.66h59.664c4.971,0,9-4.029,9-9v-59.665h50.667	V343.325z M411.989,205.995h-50.667v-59.664c0-4.971-4.029-9-9-9h-59.664V86.665h119.331V205.995z M411.989,68.665l-128.331,0.002	c-4.971,0-9,4.029-9,9v59.664h-50.665V18.001h187.996V68.665z" /></symbol></defs><use id="rs-arrow-down-usage" xlink:href="#rs-arrow-down" class="sprite-symbol-usage" /><use id="rs-github-usage" xlink:href="#rs-github" class="sprite-symbol-usage" /><use id="rs-logo-usage" xlink:href="#rs-logo" class="sprite-symbol-usage" /></svg>