<svg id="svg-sprite" style="position:absolute; left: -20000px; top: -20000px;" plainSprite xmlns="http://www.w3.org/2000/svg" xmlns:xlink="http://www.w3.org/1999/xlink"><defs><style>
    .sprite-symbol-usage {display: none;}
    .sprite-symbol-usage:target {display: inline;}
  </style><symbol viewBox="0 0 451.847 451.847" id="arrow-down"><path d="M225.923,354.706c-8.098,0-16.195-3.092-22.369-9.263L9.27,151.157c-12.359-12.359-12.359-32.397,0-44.751 c12.354-12.354,32.388-12.354,44.748,0l171.905,171.915l171.906-171.909c12.359-12.354,32.391-12.354,44.744,0 c12.365,12.354,12.365,32.392,0,44.751L248.292,345.449C242.115,351.621,234.018,354.706,225.923,354.706z" /></symbol><symbol viewBox="0 0 496 496" id="rs"><path d="M445.904,184c-3.416-10.6-7.672-20.88-12.696-30.704l35.408-35.408l-90.504-90.504l-35.408,35.408 C332.88,57.768,322.6,53.512,312,50.096V0H184v50.096c-10.6,3.416-20.88,7.672-30.704,12.696l-35.408-35.408l-90.504,90.504 l35.408,35.408C57.768,163.12,53.512,173.4,50.096,184H0v128h50.096c3.416,10.6,7.672,20.88,12.696,30.704l-35.408,35.408 l90.504,90.504l35.408-35.408c9.824,5.024,20.104,9.28,30.704,12.696V496h128v-50.096c10.6-3.416,20.88-7.672,30.704-12.696 l35.408,35.408l90.504-90.504l-35.408-35.408c5.024-9.824,9.28-20.104,12.696-30.704H496V184H445.904z M16,200h46.008l1.672-5.76 c3.92-13.464,9.288-26.44,15.952-38.568l2.888-5.264L50,117.888l67.88-67.88l32.52,32.52l5.264-2.888 c12.128-6.664,25.104-12.032,38.568-15.952l5.768-1.68V16h40l-0.016,103.56l11.216-4.896c4.04-1.768,8.344-2.664,12.8-2.664 c17.648,0,32,14.352,32,32s-14.352,32-32,32c-4.456,0-8.768-0.896-12.808-2.664l-11.264-4.928l0.04,71.568L191.336,240 c0.44-2.624,0.664-5.296,0.664-8c0-26.472-21.528-48-48-48s-48,21.528-48,48c0,2.704,0.224,5.376,0.664,8H16V200z M240,480h-40 v-46.008l-5.76-1.672c-13.464-3.92-26.44-9.288-38.568-15.952l-5.264-2.888L117.888,446l-67.88-67.88l32.52-32.52l-2.888-5.264 c-6.664-12.128-12.032-25.104-15.952-38.568L62.008,296H16v-40l103.56,0.016l-4.896-11.216c-1.768-4.04-2.664-8.344-2.664-12.8 c0-17.648,14.352-32,32-32s32,14.352,32,32c0,4.456-0.896,8.768-2.664,12.808l-4.928,11.264l71.568-0.04L240,304.664 c-2.624-0.44-5.296-0.664-8-0.664c-26.472,0-48,21.528-48,48s21.528,48,48,48c2.704,0,5.376-0.224,8-0.664V480z M480,296h-46.008 l-1.672,5.76c-3.92,13.464-9.288,26.44-15.952,38.568l-2.888,5.264l32.52,32.52l-67.88,67.88l-32.52-32.52l-5.264,2.888 c-12.128,6.664-25.104,12.032-38.568,15.952l-5.768,1.68V480h-40l0.016-103.56l-11.216,4.896c-4.04,1.768-8.344,2.664-12.8,2.664 c-17.648,0-32-14.352-32-32s14.352-32,32-32c4.456,0,8.768,0.896,12.808,2.664l11.264,4.928l-0.04-71.568L304.664,256 c-0.44,2.624-0.664,5.296-0.664,8c0,26.472,21.528,48,48,48s48-21.528,48-48c0-2.704-0.224-5.376-0.664-8H480V296z M480,240 l-103.56-0.016l4.896,11.216c1.768,4.04,2.664,8.344,2.664,12.8c0,17.648-14.352,32-32,32s-32-14.352-32-32 c0-4.456,0.896-8.768,2.664-12.808l4.928-11.264l-71.568,0.04L256,191.336c2.624,0.44,5.296,0.664,8,0.664 c26.472,0,48-21.528,48-48s-21.528-48-48-48c-2.704,0-5.376,0.224-8,0.664V16h40v46.008l5.76,1.672 c13.464,3.92,26.44,9.288,38.568,15.952l5.264,2.888L378.112,50l67.88,67.88l-32.52,32.52l2.888,5.264 c6.664,12.128,12.032,25.104,15.952,38.568l1.68,5.768H480V240z" /></symbol></defs><use id="arrow-down-usage" xlink:href="#arrow-down" class="sprite-symbol-usage" /><use id="rs-usage" xlink:href="#rs" class="sprite-symbol-usage" /></svg>