<svg id="svg-sprite" style="position:absolute; left: -20000px; top: -20000px;" xmlns="http://www.w3.org/2000/svg" xmlns:xlink="http://www.w3.org/1999/xlink"><defs><style>
    .sprite-symbol-usage {display: none;}
    .sprite-symbol-usage:target {display: inline;}
  </style><symbol viewBox="0 0 451.847 451.847" id="rs-arrow-down"><path d="M225.923,354.706c-8.098,0-16.195-3.092-22.369-9.263L9.27,151.157c-12.359-12.359-12.359-32.397,0-44.751 c12.354-12.354,32.388-12.354,44.748,0l171.905,171.915l171.906-171.909c12.359-12.354,32.391-12.354,44.744,0 c12.365,12.354,12.365,32.392,0,44.751L248.292,345.449C242.115,351.621,234.018,354.706,225.923,354.706z" /></symbol><symbol viewBox="0 0 492 492" id="rs-close"><path d="M300.188,246L484.14,62.04c5.06-5.064,7.852-11.82,7.86-19.024c0-7.208-2.792-13.972-7.86-19.028L468.02,7.872 c-5.068-5.076-11.824-7.856-19.036-7.856c-7.2,0-13.956,2.78-19.024,7.856L246.008,191.82L62.048,7.872 c-5.06-5.076-11.82-7.856-19.028-7.856c-7.2,0-13.96,2.78-19.02,7.856L7.872,23.988c-10.496,10.496-10.496,27.568,0,38.052 L191.828,246L7.872,429.952c-5.064,5.072-7.852,11.828-7.852,19.032c0,7.204,2.788,13.96,7.852,19.028l16.124,16.116 c5.06,5.072,11.824,7.856,19.02,7.856c7.208,0,13.968-2.784,19.028-7.856l183.96-183.952l183.952,183.952 c5.068,5.072,11.824,7.856,19.024,7.856h0.008c7.204,0,13.96-2.784,19.028-7.856l16.12-16.116 c5.06-5.064,7.852-11.824,7.852-19.028c0-7.204-2.792-13.96-7.852-19.028L300.188,246z" /></symbol><symbol viewBox="0 0 512 512" id="rs-github"><path d="M255.968,5.329C114.624,5.329,0,120.401,0,262.353c0,113.536,73.344,209.856,175.104,243.872 c12.8,2.368,17.472-5.568,17.472-12.384c0-6.112-0.224-22.272-0.352-43.712c-71.2,15.52-86.24-34.464-86.24-34.464 c-11.616-29.696-28.416-37.6-28.416-37.6c-23.264-15.936,1.728-15.616,1.728-15.616c25.696,1.824,39.2,26.496,39.2,26.496 c22.848,39.264,59.936,27.936,74.528,21.344c2.304-16.608,8.928-27.936,16.256-34.368 c-56.832-6.496-116.608-28.544-116.608-127.008c0-28.064,9.984-51.008,26.368-68.992c-2.656-6.496-11.424-32.64,2.496-68 c0,0,21.504-6.912,70.4,26.336c20.416-5.696,42.304-8.544,64.096-8.64c21.728,0.128,43.648,2.944,64.096,8.672 c48.864-33.248,70.336-26.336,70.336-26.336c13.952,35.392,5.184,61.504,2.56,68c16.416,17.984,26.304,40.928,26.304,68.992 c0,98.72-59.84,120.448-116.864,126.816c9.184,7.936,17.376,23.616,17.376,47.584c0,34.368-0.32,62.08-0.32,70.496 c0,6.88,4.608,14.88,17.6,12.352C438.72,472.145,512,375.857,512,262.353C512,120.401,397.376,5.329,255.968,5.329z" /></symbol><symbol viewBox="0 0 429.989 429.989" id="rs-logo"><path d="M420.989,0.001H215.122C215.079,0,215.037,0,214.994,0H77.665c-0.043,0-0.085,0-0.128,0.001H9	c-4.971,0-9,4.029-9,9v411.987c0,4.971,4.029,9,9,9h137.329h0.002h274.659c4.971,0,9-4.029,9-9V9.001	C429.989,4.031,425.96,0.001,420.989,0.001z M343.323,155.331v59.664v0.001v59.664h-50.664v-59.665c0-4.971-4.029-9-9-9h-68.665	c-0.045,0-0.09,0-0.135,0.001h-59.53v-50.665H343.323z M86.665,18h119.329v119.33h-59.665H86.665V18z M18,18.001h50.665V146.33	c0,0.063,0,0.128,0.002,0.191v59.475H18V18.001z M137.331,411.989H18V292.66h50.667v59.665c0,4.971,4.029,9,9,9h59.664V411.989z M146.329,274.66c-4.971,0-9,4.029-9,9v59.665H86.667V283.66c0-4.971-4.029-9-9-9H18v-50.664h59.667c4.971,0,9-4.029,9-9v-59.665	h50.662v59.665c0,4.971,4.029,9,9,9h59.665v50.664H146.329z M205.994,352.325v59.664h-50.663v-59.664c0-0.063,0-0.124-0.002-0.187	V292.66h59.665c4.971,0,9-4.029,9-9v-59.665h50.665v119.33h-59.665C210.023,343.325,205.994,347.354,205.994,352.325z M411.989,411.989H223.994v-50.664h187.996V411.989z M411.989,343.325H292.659V292.66h59.664c4.971,0,9-4.029,9-9v-59.665h50.667	V343.325z M411.989,205.995h-50.667v-59.664c0-4.971-4.029-9-9-9h-59.664V86.665h119.331V205.995z M411.989,68.665l-128.331,0.002	c-4.971,0-9,4.029-9,9v59.664h-50.665V18.001h187.996V68.665z" /></symbol><symbol viewBox="0 0 512 512" id="rs-settings"><path d="m272.066 512h-32.133c-25.989 0-47.134-21.144-47.134-47.133v-10.871c-11.049-3.53-21.784-7.986-32.097-13.323l-7.704 7.704c-18.659 18.682-48.548 18.134-66.665-.007l-22.711-22.71c-18.149-18.129-18.671-48.008.006-66.665l7.698-7.698c-5.337-10.313-9.792-21.046-13.323-32.097h-10.87c-25.988 0-47.133-21.144-47.133-47.133v-32.134c0-25.989 21.145-47.133 47.134-47.133h10.87c3.531-11.05 7.986-21.784 13.323-32.097l-7.704-7.703c-18.666-18.646-18.151-48.528.006-66.665l22.713-22.712c18.159-18.184 48.041-18.638 66.664.006l7.697 7.697c10.313-5.336 21.048-9.792 32.097-13.323v-10.87c0-25.989 21.144-47.133 47.134-47.133h32.133c25.989 0 47.133 21.144 47.133 47.133v10.871c11.049 3.53 21.784 7.986 32.097 13.323l7.704-7.704c18.659-18.682 48.548-18.134 66.665.007l22.711 22.71c18.149 18.129 18.671 48.008-.006 66.665l-7.698 7.698c5.337 10.313 9.792 21.046 13.323 32.097h10.87c25.989 0 47.134 21.144 47.134 47.133v32.134c0 25.989-21.145 47.133-47.134 47.133h-10.87c-3.531 11.05-7.986 21.784-13.323 32.097l7.704 7.704c18.666 18.646 18.151 48.528-.006 66.665l-22.713 22.712c-18.159 18.184-48.041 18.638-66.664-.006l-7.697-7.697c-10.313 5.336-21.048 9.792-32.097 13.323v10.871c0 25.987-21.144 47.131-47.134 47.131zm-106.349-102.83c14.327 8.473 29.747 14.874 45.831 19.025 6.624 1.709 11.252 7.683 11.252 14.524v22.148c0 9.447 7.687 17.133 17.134 17.133h32.133c9.447 0 17.134-7.686 17.134-17.133v-22.148c0-6.841 4.628-12.815 11.252-14.524 16.084-4.151 31.504-10.552 45.831-19.025 5.895-3.486 13.4-2.538 18.243 2.305l15.688 15.689c6.764 6.772 17.626 6.615 24.224.007l22.727-22.726c6.582-6.574 6.802-17.438.006-24.225l-15.695-15.695c-4.842-4.842-5.79-12.348-2.305-18.242 8.473-14.326 14.873-29.746 19.024-45.831 1.71-6.624 7.684-11.251 14.524-11.251h22.147c9.447 0 17.134-7.686 17.134-17.133v-32.134c0-9.447-7.687-17.133-17.134-17.133h-22.147c-6.841 0-12.814-4.628-14.524-11.251-4.151-16.085-10.552-31.505-19.024-45.831-3.485-5.894-2.537-13.4 2.305-18.242l15.689-15.689c6.782-6.774 6.605-17.634.006-24.225l-22.725-22.725c-6.587-6.596-17.451-6.789-24.225-.006l-15.694 15.695c-4.842 4.843-12.35 5.791-18.243 2.305-14.327-8.473-29.747-14.874-45.831-19.025-6.624-1.709-11.252-7.683-11.252-14.524v-22.15c0-9.447-7.687-17.133-17.134-17.133h-32.133c-9.447 0-17.134 7.686-17.134 17.133v22.148c0 6.841-4.628 12.815-11.252 14.524-16.084 4.151-31.504 10.552-45.831 19.025-5.896 3.485-13.401 2.537-18.243-2.305l-15.688-15.689c-6.764-6.772-17.627-6.615-24.224-.007l-22.727 22.726c-6.582 6.574-6.802 17.437-.006 24.225l15.695 15.695c4.842 4.842 5.79 12.348 2.305 18.242-8.473 14.326-14.873 29.746-19.024 45.831-1.71 6.624-7.684 11.251-14.524 11.251h-22.148c-9.447.001-17.134 7.687-17.134 17.134v32.134c0 9.447 7.687 17.133 17.134 17.133h22.147c6.841 0 12.814 4.628 14.524 11.251 4.151 16.085 10.552 31.505 19.024 45.831 3.485 5.894 2.537 13.4-2.305 18.242l-15.689 15.689c-6.782 6.774-6.605 17.634-.006 24.225l22.725 22.725c6.587 6.596 17.451 6.789 24.225.006l15.694-15.695c3.568-3.567 10.991-6.594 18.244-2.304z" /><path d="m256 367.4c-61.427 0-111.4-49.974-111.4-111.4s49.973-111.4 111.4-111.4 111.4 49.974 111.4 111.4-49.973 111.4-111.4 111.4zm0-192.8c-44.885 0-81.4 36.516-81.4 81.4s36.516 81.4 81.4 81.4 81.4-36.516 81.4-81.4-36.515-81.4-81.4-81.4z" /></symbol><symbol viewBox="0 0 512 512" id="rs-trash"><path d="m424 64h-88v-16c0-26.467-21.533-48-48-48h-64c-26.467 0-48 21.533-48 48v16h-88c-22.056 0-40 17.944-40 40v56c0 8.836 7.164 16 16 16h8.744l13.823 290.283c1.221 25.636 22.281 45.717 47.945 45.717h242.976c25.665 0 46.725-20.081 47.945-45.717l13.823-290.283h8.744c8.836 0 16-7.164 16-16v-56c0-22.056-17.944-40-40-40zm-216-16c0-8.822 7.178-16 16-16h64c8.822 0 16 7.178 16 16v16h-96zm-128 56c0-4.411 3.589-8 8-8h336c4.411 0 8 3.589 8 8v40c-4.931 0-331.567 0-352 0zm313.469 360.761c-.407 8.545-7.427 15.239-15.981 15.239h-242.976c-8.555 0-15.575-6.694-15.981-15.239l-13.751-288.761h302.44z" /><path d="M256 448c8.836 0 16-7.164 16-16v-208c0-8.836-7.164-16-16-16s-16 7.164-16 16v208c0 8.836 7.163 16 16 16zM336 448c8.836 0 16-7.164 16-16v-208c0-8.836-7.164-16-16-16s-16 7.164-16 16v208c0 8.836 7.163 16 16 16zM176 448c8.836 0 16-7.164 16-16v-208c0-8.836-7.164-16-16-16s-16 7.164-16 16v208c0 8.836 7.163 16 16 16z" /></symbol></defs><use id="rs-arrow-down-usage" xlink:href="#rs-arrow-down" class="sprite-symbol-usage" /><use id="rs-close-usage" xlink:href="#rs-close" class="sprite-symbol-usage" /><use id="rs-github-usage" xlink:href="#rs-github" class="sprite-symbol-usage" /><use id="rs-logo-usage" xlink:href="#rs-logo" class="sprite-symbol-usage" /><use id="rs-settings-usage" xlink:href="#rs-settings" class="sprite-symbol-usage" /><use id="rs-trash-usage" xlink:href="#rs-trash" class="sprite-symbol-usage" /></svg>